<?xml version="1.0" encoding="utf-8"?>
<!-- Generator: Adobe Illustrator 16.0.0, SVG Export Plug-In . SVG Version: 6.00 Build 0)  -->
<!DOCTYPE svg PUBLIC "-//W3C//DTD SVG 1.1//EN" "http://www.w3.org/Graphics/SVG/1.1/DTD/svg11.dtd">
<svg version="1.1" id="Layer_1" xmlns="http://www.w3.org/2000/svg" xmlns:xlink="http://www.w3.org/1999/xlink" x="0px" y="0px"
	 width="145px" height="50px" viewBox="0 0 145 50" enable-background="new 0 0 145 50" xml:space="preserve">
<g>
	<g>
		<g>
		</g>
		<g id="_Group_">
			<g id="_Group_2">
				<g id="_Group_3">
					<path id="_Path_" fill="#6C757D" d="M27.622,24.608c0.028-2.209,1.186-4.248,3.067-5.404c-1.192-1.703-3.117-2.744-5.194-2.809
						c-2.186-0.23-4.304,1.309-5.418,1.309c-1.135,0-2.85-1.285-4.696-1.248c-2.429,0.08-4.639,1.428-5.821,3.551
						c-2.517,4.357-0.64,10.764,1.771,14.285c1.207,1.725,2.616,3.65,4.461,3.584c1.806-0.076,2.48-1.152,4.659-1.152
						c2.159,0,2.791,1.152,4.673,1.107c1.937-0.031,3.158-1.73,4.322-3.473c0.867-1.23,1.534-2.588,1.976-4.025
						C29.12,29.36,27.625,27.106,27.622,24.608z"/>
					<path id="_Path_2" fill="#6C757D" d="M24.066,14.079c1.057-1.268,1.577-2.898,1.451-4.543c-1.614,0.17-3.104,0.941-4.175,2.16
						c-1.057,1.203-1.592,2.777-1.489,4.375C21.489,16.089,23.042,15.354,24.066,14.079z"/>
				</g>
			</g>
			<g>
				<path fill="#6C757D" d="M50.442,33.509H44.28l-1.479,4.369h-2.608l5.834-16.162h2.713l5.833,16.162h-2.653L50.442,33.509z
					 M44.918,31.493h4.884l-2.408-7.09h-0.066L44.918,31.493z"/>
				<path fill="#6C757D" d="M67.175,31.985c0,3.662-1.958,6.016-4.918,6.016c-1.527,0.08-2.968-0.721-3.706-2.063h-0.056v5.836
					h-2.42V26.093h2.341v1.961h0.046c0.771-1.334,2.213-2.133,3.752-2.084C65.203,25.97,67.175,28.335,67.175,31.985z
					 M64.689,31.985c0-2.385-1.232-3.953-3.113-3.953c-1.849,0-3.092,1.602-3.092,3.953c0,2.375,1.243,3.965,3.092,3.965
					C63.457,35.95,64.689,34.394,64.689,31.985z"/>
				<path fill="#6C757D" d="M80.146,31.985c0,3.662-1.961,6.016-4.92,6.016c-1.527,0.08-2.967-0.721-3.706-2.063h-0.057v5.836h-2.42
					V26.093h2.342v1.961h0.045c0.77-1.334,2.211-2.133,3.752-2.084C78.174,25.97,80.146,28.335,80.146,31.985z M77.66,31.985
					c0-2.385-1.234-3.953-3.115-3.953c-1.848,0-3.09,1.602-3.09,3.953c0,2.375,1.242,3.965,3.09,3.965
					C76.426,35.95,77.66,34.394,77.66,31.985L77.66,31.985z"/>
				<path fill="#6C757D" d="M88.717,33.374c0.178,1.604,1.736,2.654,3.865,2.654c2.037,0,3.504-1.051,3.504-2.496
					c0-1.256-0.885-2.006-2.979-2.521l-2.096-0.504c-2.969-0.717-4.346-2.105-4.346-4.357c0-2.789,2.43-4.703,5.883-4.703
					c3.414,0,5.754,1.914,5.834,4.703h-2.441c-0.146-1.613-1.479-2.586-3.43-2.586c-1.947,0-3.281,0.984-3.281,2.418
					c0,1.143,0.852,1.814,2.936,2.33l1.779,0.438c3.318,0.783,4.695,2.115,4.695,4.48c0,3.023-2.41,4.916-6.24,4.916
					c-3.584,0-6.004-1.848-6.158-4.771H88.717z"/>
				<path fill="#6C757D" d="M103.859,23.306v2.787h2.242v1.916h-2.242v6.496c0,1.01,0.451,1.48,1.434,1.48
					c0.268-0.004,0.533-0.025,0.797-0.057v1.904c-0.443,0.082-0.893,0.121-1.342,0.111c-2.389,0-3.318-0.896-3.318-3.182v-6.754
					h-1.713v-1.916h1.713v-2.787H103.859z"/>
				<path fill="#6C757D" d="M107.398,31.985c0-3.707,2.184-6.037,5.59-6.037c3.416,0,5.59,2.33,5.59,6.037
					c0,3.719-2.164,6.037-5.59,6.037S107.398,35.704,107.398,31.985z M116.113,31.985c0-2.543-1.166-4.043-3.125-4.043
					s-3.125,1.512-3.125,4.043c0,2.555,1.166,4.043,3.125,4.043S116.113,34.54,116.113,31.985L116.113,31.985z"/>
				<path fill="#6C757D" d="M120.57,26.093h2.309v2.006h0.057c0.32-1.291,1.504-2.18,2.834-2.129c0.277,0,0.557,0.029,0.828,0.09
					v2.264c-0.354-0.107-0.719-0.156-1.088-0.146c-1.344-0.055-2.479,0.992-2.533,2.336c-0.004,0.125,0,0.25,0.014,0.375v6.99h-2.42
					V26.093z"/>
				<path fill="#6C757D" d="M137.75,34.417c-0.326,2.139-2.41,3.605-5.074,3.605c-3.43,0-5.557-2.297-5.557-5.98
					c0-3.695,2.141-6.094,5.455-6.094c3.26,0,5.311,2.24,5.311,5.813v0.828h-8.322v0.146c-0.15,1.689,1.098,3.18,2.785,3.328
					c0.127,0.012,0.256,0.014,0.385,0.01c1.172,0.111,2.279-0.564,2.719-1.656H137.75z M129.572,30.899h5.893
					c0.086-1.564-1.109-2.9-2.672-2.986c-0.074-0.004-0.146-0.006-0.219-0.004c-1.646-0.012-2.992,1.318-3.002,2.965
					C129.572,30.882,129.572,30.892,129.572,30.899z"/>
			</g>
		</g>
	</g>
	<g id="_Group_4">
		<g>
			<path fill="#6C757D" d="M44.616,9.55c1.893-0.135,3.536,1.287,3.673,3.18c0.015,0.227,0.01,0.455-0.02,0.68
				c0,2.48-1.341,3.906-3.654,3.906h-2.805V9.55H44.616z M43.017,16.218h1.464c1.346,0.08,2.502-0.945,2.583-2.291
				c0.01-0.168,0.002-0.336-0.021-0.502c0.184-1.34-0.754-2.574-2.093-2.758c-0.155-0.021-0.312-0.029-0.468-0.02h-1.464V16.218z"/>
			<path fill="#6C757D" d="M49.632,14.382c-0.146-1.525,0.973-2.881,2.501-3.027c1.524-0.146,2.881,0.973,3.027,2.5
				c0.017,0.176,0.017,0.354,0,0.527c0.148,1.527-0.969,2.887-2.494,3.033c-1.527,0.148-2.885-0.967-3.034-2.494
				C49.616,14.743,49.616,14.562,49.632,14.382z M53.97,14.382c0-1.27-0.57-2.012-1.571-2.012c-1.006,0-1.571,0.742-1.571,2.012
				c0,1.281,0.565,2.02,1.571,2.02C53.399,16.401,53.97,15.659,53.97,14.382L53.97,14.382z"/>
			<path fill="#6C757D" d="M62.508,17.315h-1.2l-1.211-4.316h-0.092l-1.206,4.316H57.61l-1.615-5.859h1.173l1.05,4.471h0.087
				l1.204-4.471h1.11l1.204,4.471h0.092l1.045-4.471h1.157L62.508,17.315z"/>
			<path fill="#6C757D" d="M65.476,11.456h1.113v0.93h0.086c0.299-0.686,1.002-1.104,1.748-1.043
				c1.051-0.08,1.965,0.707,2.045,1.758c0.01,0.141,0.004,0.281-0.016,0.422v3.793h-1.156v-3.504c0-0.941-0.411-1.408-1.266-1.408
				c-0.74-0.035-1.371,0.537-1.404,1.279c-0.004,0.068-0.002,0.137,0.006,0.205v3.428h-1.156V11.456z"/>
			<path fill="#6C757D" d="M72.296,9.167h1.157v8.148h-1.157V9.167z"/>
			<path fill="#6C757D" d="M75.061,14.382c-0.146-1.525,0.973-2.883,2.5-3.027c1.525-0.146,2.883,0.973,3.027,2.5
				c0.018,0.176,0.018,0.354,0,0.527c0.15,1.527-0.969,2.887-2.494,3.033c-1.527,0.148-2.885-0.969-3.033-2.494
				C75.043,14.743,75.043,14.562,75.061,14.382z M79.398,14.382c0-1.27-0.57-2.012-1.572-2.012c-1.006,0-1.57,0.742-1.57,2.012
				c0,1.281,0.564,2.02,1.57,2.02C78.828,16.401,79.398,15.659,79.398,14.382z"/>
			<path fill="#6C757D" d="M81.805,15.659c0-1.055,0.787-1.664,2.182-1.75l1.586-0.092v-0.506c0-0.619-0.408-0.969-1.199-0.969
				c-0.646,0-1.094,0.238-1.221,0.652h-1.121c0.119-1.008,1.066-1.652,2.395-1.652c1.471,0,2.299,0.73,2.299,1.969v4.004h-1.113
				v-0.822H85.52c-0.377,0.6-1.051,0.953-1.76,0.92c-0.973,0.1-1.842-0.605-1.943-1.578C81.809,15.776,81.805,15.718,81.805,15.659z
				 M85.572,15.157v-0.49l-1.43,0.092c-0.807,0.055-1.172,0.33-1.172,0.846c0,0.527,0.457,0.834,1.084,0.834
				c0.76,0.076,1.438-0.477,1.516-1.234C85.57,15.188,85.572,15.173,85.572,15.157z"/>
			<path fill="#6C757D" d="M88.244,14.382c0-1.852,0.953-3.023,2.434-3.023c0.748-0.035,1.449,0.365,1.797,1.027h0.086V9.167h1.156
				v8.148h-1.107V16.39h-0.092c-0.375,0.656-1.084,1.051-1.84,1.023C89.188,17.413,88.244,16.239,88.244,14.382z M89.439,14.382
				c0,1.244,0.588,1.992,1.566,1.992c0.975,0,1.578-0.758,1.578-1.986c0-1.221-0.611-1.99-1.578-1.99
				C90.031,12.397,89.439,13.149,89.439,14.382L89.439,14.382z"/>
			<path fill="#6C757D" d="M98.504,14.382c-0.146-1.525,0.973-2.881,2.498-3.027c1.527-0.146,2.883,0.973,3.027,2.5
				c0.02,0.176,0.02,0.354,0,0.527c0.15,1.527-0.967,2.887-2.492,3.033c-1.527,0.148-2.885-0.967-3.033-2.494
				C98.486,14.743,98.486,14.562,98.504,14.382z M102.84,14.382c0-1.27-0.568-2.012-1.57-2.012c-1.006,0-1.57,0.742-1.57,2.012
				c0,1.281,0.564,2.02,1.57,2.02C102.271,16.401,102.84,15.659,102.84,14.382z"/>
			<path fill="#6C757D" d="M105.584,11.456h1.113v0.93h0.086c0.301-0.686,1.002-1.104,1.748-1.043
				c1.051-0.08,1.967,0.707,2.045,1.758c0.01,0.141,0.004,0.281-0.016,0.422v3.793h-1.156v-3.504c0-0.941-0.41-1.408-1.266-1.408
				c-0.742-0.035-1.371,0.537-1.406,1.279c-0.002,0.068,0,0.137,0.008,0.205v3.428h-1.156V11.456z"/>
			<path fill="#6C757D" d="M117.096,9.997v1.484h1.27v0.975h-1.27v3.014c0,0.613,0.252,0.883,0.83,0.883
				c0.146-0.002,0.293-0.01,0.439-0.027v0.965c-0.207,0.037-0.418,0.057-0.629,0.059c-1.285,0-1.799-0.453-1.799-1.584v-3.309
				h-0.932v-0.975h0.932V9.997H117.096z"/>
			<path fill="#6C757D" d="M119.945,9.167h1.146v3.23h0.092c0.314-0.691,1.029-1.111,1.787-1.051
				c1.064-0.059,1.975,0.758,2.033,1.824c0.006,0.119,0,0.24-0.016,0.361v3.783h-1.158v-3.498c0-0.936-0.436-1.41-1.254-1.41
				c-0.752-0.063-1.412,0.498-1.475,1.252c-0.008,0.078-0.008,0.156,0,0.234v3.422h-1.156V9.167z"/>
			<path fill="#6C757D" d="M131.732,15.733c-0.324,1.105-1.395,1.818-2.539,1.695c-1.471,0.039-2.693-1.121-2.732-2.592
				c-0.002-0.145,0.006-0.289,0.025-0.434c-0.199-1.479,0.84-2.84,2.32-3.037c0.125-0.018,0.254-0.025,0.381-0.023
				c1.631,0,2.613,1.113,2.613,2.953V14.7h-4.137v0.064c-0.072,0.852,0.561,1.602,1.412,1.674c0.051,0.004,0.1,0.006,0.148,0.006
				c0.566,0.066,1.117-0.213,1.395-0.711H131.732z M127.664,13.845h2.961c0.057-0.779-0.527-1.457-1.307-1.516
				c-0.047-0.004-0.092-0.004-0.137-0.004c-0.828-0.01-1.508,0.652-1.518,1.482C127.664,13.819,127.664,13.833,127.664,13.845
				L127.664,13.845z"/>
		</g>
	</g>
</g>
</svg>
